<svg height="512" viewBox="0 0 58 56" width="512" xmlns="http://www.w3.org/2000/svg"><g id="Page-1" fill="none" fill-rule="evenodd"><g id="041---Books" fill-rule="nonzero"><path id="Shape" d="m50 13v12h-41.891c-2.82 0-5.109-2.688-5.109-6s2.289-6 5.109-6z" fill="#f5efca"/><path id="Shape" d="m52 26c-.0032948 1.1032019-.8967981 1.9967052-2 2h-41c-4.9705627-.0000001-8.99999987-4.0294373-8.99999987-9s4.02943717-8.9999999 8.99999987-9h41c1.1045695 0 1.9999999.8954305 1.9999999 2s-.8954304 2-1.9999999 2h-41c-2.76142375 0-5 2.2385763-5 5s2.23857625 5 5 5h41c1.1032019.0032948 1.9967052.8967981 2 2z" fill="#f29c1f"/><rect id="Rectangle-path" fill="#7d6599" height="14" rx="2" width="54" x="4" y="28"/><rect id="Rectangle-path" fill="#e64c3c" height="14" rx="2" width="54" y="42"/><rect id="Rectangle-path" fill="#3b97d3" height="10" rx="2" width="54"/><path id="Rectangle-path" d="m8 0h4v10h-4z" fill="#67b9cc"/><path id="Rectangle-path" d="m42 0h4v10h-4z" fill="#67b9cc"/><rect id="Rectangle-path" fill="#9fc9d3" height="6" rx="1" width="24" x="19" y="32"/><path id="Rectangle-path" d="m48 28h2v14h-2z" fill="#b49aca"/><path id="Rectangle-path" d="m12 28h2v14h-2z" fill="#b49aca"/><ellipse id="Oval" cx="27" cy="49" fill="#f5efca" rx="9" ry="3"/><g fill="#f29c1f"><path id="Rectangle-path" d="m6 42h4v14h-4z"/><path id="Rectangle-path" d="m44 42h4v14h-4z"/></g></g></g></svg>