<svg xmlns="http://www.w3.org/2000/svg" version="1.1" xmlns:xlink="http://www.w3.org/1999/xlink" width="512" height="512" x="0" y="0" viewBox="0 0 480.01 480" style="enable-background:new 0 0 512 512" xml:space="preserve" class=""><circle r="240.005" cx="240.005" cy="240" fill="#adbbd8" shape="circle"></circle><g transform="matrix(0.6,0,0,0.6,106.00206298828127,96.00160064697272)"><path d="M128 104.004v-32a8 8 0 0 0-8-8H8a8 8 0 0 0-8 8v32zM0 120.004v264h128v-264zm96 104H32a8 8 0 0 1-8-8v-64a8 8 0 0 1 8-8h64a8 8 0 0 1 8 8v64a8 8 0 0 1-8 8zM0 432.004v40a8 8 0 0 0 8 8h112a8 8 0 0 0 8-8v-40zM0 400.004h128v16H0zM144 400.004h104v16H144zM248 32.004v-24a8 8 0 0 0-8-8h-88a8 8 0 0 0-8 8v24zM144 88.004h104v296H144zM144 432.004v40a8 8 0 0 0 8 8h88a8 8 0 0 0 8-8v-40zM144 48.004h104v24H144zM263.809 165.668l4.28 16.434 135.485-36.13-4.285-16.433zM330.664 421.95l135.48-36.13-8.578-32.886-135.488 36.129zM453.527 337.453l-45.91-176-135.488 36.129 45.91 176zm0 0" fill="#ffffff" opacity="1" data-original="#000000" class=""></path><path d="m259.77 150.188 135.476-36.125-11.484-44.06a8.181 8.181 0 0 0-9.84-5.757l-120 32a8.059 8.059 0 0 0-5.684 9.758zM470.184 401.3l-135.489 36.13 9.543 36.574a8.026 8.026 0 0 0 3.762 4.883 7.725 7.725 0 0 0 4 1.117c.7 0 1.398-.082 2.078-.238l120-32a8.063 8.063 0 0 0 5.684-9.762zm0 0" fill="#ffffff" opacity="1" data-original="#000000" class=""></path></g></svg>