<svg xmlns="http://www.w3.org/2000/svg" version="1.1" xmlns:xlink="http://www.w3.org/1999/xlink" width="512" height="512" x="0" y="0" viewBox="0 0 512 511" style="enable-background:new 0 0 512 512" xml:space="preserve" class=""><circle r="256" cx="256" cy="255.5" fill="#adbbd8" shape="circle"></circle><g transform="matrix(0.6,0,0,0.6,102.39989624023437,97.4797039985657)"><path d="M508.25 29.848 482.648 4.25c-4.992-4.996-13.093-5-18.09-.008-.003.004-.007.004-.007.008L310.949 157.848a12.813 12.813 0 0 0-3.75 9.05V192.5c0 7.066 5.73 12.797 12.801 12.797h25.602c3.394 0 6.648-1.348 9.046-3.746L508.25 47.949c4.996-4.996 5-13.094.008-18.094a.008.008 0 0 1-.008-.007zm0 0" fill="#ffffff" opacity="1" data-original="#000000" class=""></path><path d="M345.602 230.898H320c-21.2-.023-38.379-17.203-38.402-38.398v-25.602a38.17 38.17 0 0 1 11.25-27.148l88.05-88.05H64c-35.332.038-63.96 28.667-64 64v230.398c.04 35.332 28.668 63.965 64 64h115.2v64c0 7.07 5.73 12.8 12.8 12.8 2.77 0 5.465-.898 7.68-2.562l99-74.238h123.718c35.332-.04 63.965-28.672 64-64V106L372.75 219.648a38.16 38.16 0 0 1-27.148 11.25zm-256-102.398h128c7.066 0 12.796 5.73 12.796 12.8 0 7.067-5.73 12.798-12.796 12.798h-128c-7.07 0-12.801-5.727-12.801-12.797S82.53 128.5 89.6 128.5zm0 76.797h128c7.066 0 12.796 5.73 12.796 12.8 0 7.071-5.73 12.801-12.796 12.801h-128c-7.07 0-12.801-5.73-12.801-12.8 0-7.067 5.73-12.801 12.8-12.801zm319.996 89.601c0 7.07-5.73 12.801-12.797 12.801H89.6c-7.07 0-12.8-5.73-12.8-12.8 0-7.067 5.73-12.801 12.8-12.801h307.2c7.066 0 12.797 5.73 12.797 12.8zm0 0" fill="#ffffff" opacity="1" data-original="#000000" class=""></path></g></svg>