<svg xmlns="http://www.w3.org/2000/svg" version="1.1" xmlns:xlink="http://www.w3.org/1999/xlink" width="512" height="512" x="0" y="0" viewBox="0 0 512.001 512" style="enable-background:new 0 0 512 512" xml:space="preserve"><circle r="256.0005" cx="256.0005" cy="256" fill="#adbbd8" shape="circle"></circle><g transform="matrix(0.6,0,0,0.6,92.4,102.19660034179688)"><path d="M391.133 120.871c-26.258-26.258-60.746-39.387-95.238-39.387-34.489 0-68.977 13.13-95.235 39.387-52.512 52.512-52.512 137.957 0 190.469 52.516 52.512 137.957 52.512 190.469 0 25.441-25.438 39.45-59.262 39.45-95.235 0-35.976-14.009-69.796-39.446-95.234ZM310.82 271.898c-.047.493-.117.98-.218 1.461-.102.48-.22.961-.36 1.422-.14.469-.308.93-.5 1.38-.18.46-.39.898-.62 1.327-.231.43-.49.86-.759 1.262-.27.41-.562.809-.87 1.188-.31.378-.641.75-.99 1.09-.35.35-.71.679-1.1.992-.372.308-.77.609-1.18.878-.41.27-.832.52-1.262.75-.43.23-.879.438-1.328.63-.45.19-.922.35-1.38.492-.472.148-.952.27-1.429.359a15.537 15.537 0 0 1-2.93.297c-.492 0-.98-.028-1.472-.078-.488-.051-.98-.121-1.457-.22-.48-.089-.953-.21-1.422-.358-.469-.141-.93-.301-1.379-.493a15.335 15.335 0 0 1-2.59-1.379c-.41-.27-.808-.57-1.191-.878-.38-.313-.75-.641-1.09-.993-.348-.34-.68-.707-.988-1.09-.313-.378-.61-.777-.88-1.187a12.775 12.775 0 0 1-.75-1.262 14.82 14.82 0 0 1-.632-1.328c-.18-.45-.348-.91-.488-1.379-.153-.46-.27-.941-.36-1.422-.101-.48-.172-.968-.222-1.46-.047-.489-.078-.981-.078-1.47 0-.488.03-.988.078-1.48.05-.48.12-.969.222-1.449.09-.48.207-.96.36-1.43.14-.468.308-.93.488-1.379.191-.449.402-.902.633-1.332.226-.43.476-.851.75-1.257.27-.41.566-.813.879-1.184.308-.387.64-.75.988-1.098.34-.351.71-.68 1.09-.992.383-.308.781-.598 1.191-.867a13.998 13.998 0 0 1 2.578-1.383c.461-.187.922-.36 1.391-.5.46-.137.941-.258 1.422-.36.476-.097.969-.167 1.457-.218.98-.102 1.973-.102 2.95 0 .48.05.972.121 1.452.219.477.101.957.222 1.43.36.457.14.93.312 1.379.5.449.183.898.39 1.328.62.43.23.851.492 1.262.762.41.27.808.559 1.18.867.39.313.75.64 1.1.992.349.348.68.711.99 1.098.308.371.6.773.87 1.184.27.406.528.828.758 1.257.23.43.442.883.621 1.332.192.45.36.91.5 1.38.14.468.258.949.36 1.429a14.498 14.498 0 0 1 .29 2.93c-.001.488-.02.98-.072 1.468Zm.075-47.218c0 8.28-6.715 14.996-15 14.996-8.282 0-14.997-6.715-14.997-14.996V165.78c0-8.281 6.715-14.996 14.997-14.996 8.285 0 15 6.715 15 14.996Zm0 0" style="stroke:none;fill-rule:nonzero;fill-opacity:1;" fill="#ffffff" data-original="#000000" opacity="1"></path><path d="M448.703 63.297C407.887 22.48 353.621 0 295.895 0 238.172 0 183.902 22.48 143.09 63.297c-40.82 40.816-63.297 95.082-63.297 152.808 0 57.723 22.477 111.989 63.297 152.805 40.816 40.817 95.082 63.297 152.808 63.297 57.723 0 111.989-22.477 152.809-63.297C489.523 328.094 512 273.828 512 216.105c0-57.722-22.48-111.992-63.297-152.808ZM412.34 332.55c-31.102 31.101-72.457 48.23-116.445 48.23-43.985 0-85.34-17.129-116.446-48.23-64.207-64.207-64.207-168.684 0-232.89 31.106-31.106 72.461-48.235 116.446-48.235 43.988 0 85.343 17.129 116.445 48.234 31.105 31.102 48.234 72.457 48.234 116.445 0 43.985-17.129 85.34-48.234 116.446ZM97.262 357.8l-85.586 85.15C4.148 450.476 0 460.487 0 471.136c0 10.648 4.148 20.66 11.676 28.187 7.777 7.778 17.988 11.66 28.199 11.66 10.2 0 20.395-3.879 28.148-11.632l85.512-85.075a218.31 218.31 0 0 1-30.445-25.367 218.338 218.338 0 0 1-25.828-31.11Zm0 0" style="stroke:none;fill-rule:nonzero;fill-opacity:1;" fill="#ffffff" data-original="#000000" opacity="1"></path></g></svg>