<svg id="Capa_1" enable-background="new 0 0 512 512" viewBox="0 0 512 512" xmlns="http://www.w3.org/2000/svg"><g><g><g><g><path d="m403.511 200.885-168.467 148.869c-7.232 6.39-17.638 7.43-26.15 2.884-27.205-14.529-61.778-10.334-84.719 12.607-27.976 27.976-28.082 73.27-.326 101.39l-.006.006 41.462 41.462c5.196 5.196 13.621 5.196 18.818 0l323.991-323.993c2.496-2.496 1.224-6.771-2.234-7.48-17.8-3.651-63.012-8.485-102.369 24.255zm-199.769 243.928c-15.844 15.845-41.549 15.845-57.394 0-15.851-15.851-15.844-41.549 0-57.394 15.851-15.851 41.543-15.851 57.394 0 15.845 15.844 15.851 41.543 0 57.394z" fill="#7a8d98"/></g><path d="m505.881 176.63c-6.957-1.427-18.112-3.024-31.457-2.499l-270.68 270.68s-.001.001-.001.001-.001.001-.001.001l-50.863 50.863 12.426 12.426c5.196 5.196 13.621 5.196 18.818 0l323.991-323.992c2.497-2.496 1.225-6.771-2.233-7.48z" fill="#596d76"/></g><g><path d="m280.219 182.049 20.197 3.797c7.232 1.358 14.699.665 21.521-2.07 8.892-3.582 21.494-10.512 34.788-23.806 42.268-42.268 62.626-90.451 18.126-134.95s-92.683-24.141-134.951 18.127c-13.294 13.294-20.223 25.896-23.806 34.788-2.735 6.822-3.428 14.289-2.07 21.521l3.797 20.197zm5.189-66.618c-18.16-18.16-18.16-47.598 0-65.758 18.153-18.153 47.598-18.16 65.758 0s18.153 47.605 0 65.758c-18.16 18.16-47.598 18.16-65.758 0z" fill="#7a8d98"/><path d="m374.846 25.023c-4.543-4.553-9.138-8.427-13.753-11.651 18.358 26.136 16.442 53.188 2.575 79.283-1.844 8.355-6.016 16.287-12.506 22.777-2.452 2.452-5.11 4.574-7.922 6.356-3.719 4.316-7.716 8.581-11.919 12.785-13.289 13.289-25.899 20.222-34.789 23.797-6.82 2.74-17.461 2.303-24.744 1.511l8.436 22.173 20.192 3.791c7.232 1.36 14.701.67 21.52-2.071 8.89-3.575 21.49-10.508 34.789-23.807 42.269-42.269 62.625-90.45 18.121-134.944z" fill="#596d76"/><path d="m261.175 138.7-26.82 86.33-127.61 119.59c-44.631 40.779-83.151 50.366-98.126 52.614-3.502.526-6.503-2.476-5.978-5.978 2.247-14.977 11.832-53.501 52.604-98.126l162.58-173.48 35.29 13.89c3.04 1.2 5.76 2.95 8.06 5.16z" fill="#596d76"/><path d="m106.745 344.63v-.01c-44.63 40.78-83.15 50.37-98.13 52.61-1.75.27-3.37-.35-4.49-1.47-.01-.01 0-.01 0-.01l257.05-257.05c2.62 2.51 4.69 5.6 6.01 9.07l13.03 34.28z" fill="#475a61"/></g></g></g><g/><g/><g/><g/><g/><g/><g/><g/><g/><g/><g/><g/><g/><g/><g/></svg>